<svg xmlns="http://www.w3.org/2000/svg" version="1.0" preserveAspectRatio="xMidYMid meet" viewBox="14 14 1063.81 176.11">

<g transform="translate(0.000000,1080.000000) scale(0.100000,-0.100000)" fill="#000000" stroke="none">
<path d="M9054 10647 c-3 -8 -3 -162 -2 -343 l3 -329 24 -34 c75 -105 279 -94 338 19 21 40 23 55 23 205 0 152 -1 164 -23 196 -35 52 -80 71 -157 66 -36 -2 -80 -12 -98 -21 l-32 -17 0 116 c0 64 -5 125 -10 136 -12 22 -58 26 -66 6z m286 -313 c23 -22 25 -33 28 -134 5 -147 -3 -196 -38 -232 -24 -23 -37 -28 -80 -28 -53 0 -86 12 -107 39 -9 11 -12 67 -13 178 l0 163 25 16 c60 39 144 39 185 -2z"/>
<path d="M9590 10640 c-8 -15 -10 -126 -8 -374 3 -334 4 -355 22 -375 13 -14 29 -21 45 -19 23 3 25 7 22 33 -2 17 -6 192 -10 390 l-6 360 -27 3 c-19 2 -30 -3 -38 -18z"/>
<path d="M10687 10430 l-36 -31 -50 17 c-70 23 -158 16 -205 -17 -86 -58 -103 -206 -34 -301 10 -14 9 -23 -6 -48 -22 -38 -23 -93 -4 -122 13 -20 12 -25 -8 -56 -48 -70 -43 -152 11 -207 40 -40 87 -55 170 -55 174 0 273 152 174 265 -36 41 -106 65 -189 65 -84 0 -119 35 -90 89 8 16 16 17 52 11 91 -17 177 19 215 89 18 35 23 60 23 118 0 79 8 102 48 146 21 22 24 31 16 45 -18 28 -49 25 -87 -8z m-83 -84 l33 -14 -4 -73 c-5 -90 -17 -122 -49 -139 -37 -20 -110 -17 -142 7 -58 43 -64 153 -11 205 23 24 36 28 84 28 30 0 71 -6 89 -14z m1 -490 c52 -22 68 -67 44 -120 -18 -39 -71 -59 -147 -54 -56 4 -68 8 -88 32 -28 32 -33 99 -8 134 13 19 24 22 90 22 42 0 90 -6 109 -14z"/>
<path d="M9903 10411 c-26 -12 -52 -36 -70 -62 -27 -40 -28 -49 -31 -174 -2 -75 1 -148 7 -172 23 -86 91 -132 195 -133 83 0 138 28 174 88 26 45 27 52 27 192 0 133 -2 148 -23 185 -36 64 -82 89 -166 93 -54 2 -81 -2 -113 -17z m180 -72 c39 -30 50 -80 46 -218 l-4 -123 -33 -29 c-27 -24 -41 -29 -83 -29 -60 0 -101 19 -117 55 -7 16 -12 77 -12 156 0 178 17 207 126 208 37 1 58 -5 77 -20z"/>
<path d="M4360 10217 c0 -22 -73 -379 -86 -419 -5 -16 2 -18 54 -18 l60 0 37 88 c57 135 118 320 111 337 -4 12 -24 15 -91 15 -47 0 -85 -1 -85 -3z"/>
<path d="M6050 10128 c-124 -20 -230 -97 -317 -230 -67 -103 -93 -166 -93 -225 0 -59 74 -296 118 -378 15 -27 72 -97 127 -156 106 -113 163 -179 186 -216 26 -43 54 -29 95 45 21 37 58 99 83 137 48 76 119 228 183 395 l41 105 -5 125 c-7 156 -25 199 -124 288 -114 103 -183 128 -294 110z m162 -75 c74 -39 149 -112 196 -191 25 -43 27 -55 27 -152 l0 -105 -74 -180 c-66 -163 -120 -267 -220 -427 l-36 -57 -27 32 c-15 18 -41 53 -58 79 -17 25 -41 53 -53 61 -13 8 -45 48 -72 88 -27 41 -66 94 -86 119 -108 131 -143 375 -74 516 39 80 156 196 237 235 81 39 140 35 240 -18z"/>
<path d="M6065 9883 c-44 -11 -102 -55 -123 -92 -29 -52 -28 -107 3 -153 30 -44 76 -62 146 -55 61 6 95 27 116 72 14 28 14 42 4 91 -14 73 -31 99 -81 124 -21 11 -41 19 -42 19 -2 -1 -12 -4 -23 -6z m74 -69 c35 -29 57 -89 47 -128 -8 -34 -75 -76 -119 -76 -43 0 -78 27 -101 78 -18 40 -18 41 4 79 41 74 113 94 169 47z"/>
<path d="M1400 9515 l0 -585 125 0 125 0 0 359 c0 403 -7 371 80 371 87 0 80 32 80 -371 l0 -359 125 0 125 0 0 339 c0 187 -5 362 -10 392 -13 68 -48 121 -97 145 -52 26 -222 27 -270 2 l-33 -16 0 154 0 154 -125 0 -125 0 0 -585z"/>
<path d="M6530 9515 l0 -585 100 0 100 0 0 31 0 31 34 -30 c44 -39 119 -56 208 -49 88 7 144 38 178 99 l25 43 0 315 c0 303 -1 317 -21 355 -43 79 -95 104 -219 104 -58 1 -92 -5 -122 -19 l-43 -19 0 154 0 155 -120 0 -120 0 0 -585z m400 126 c12 -24 14 -520 1 -539 -5 -9 -29 -12 -82 -10 l-74 3 -3 269 c-2 190 1 273 9 282 8 9 33 14 75 14 52 0 65 -3 74 -19z"/>
<path d="M2353 9819 c-52 -15 -99 -67 -118 -132 -14 -48 -16 -99 -13 -339 3 -273 4 -285 26 -331 17 -34 37 -55 70 -75 45 -25 55 -27 197 -31 170 -4 240 7 287 47 47 40 68 94 68 185 l0 77 -120 0 -119 0 -3 -62 -3 -63 -72 -3 c-90 -4 -95 3 -91 126 l3 87 203 3 202 2 0 183 c0 155 -3 188 -19 222 -22 50 -69 91 -119 105 -45 12 -335 12 -379 -1z m275 -256 l3 -93 -86 0 -85 0 0 83 c0 53 5 88 12 95 9 9 37 12 83 10 l70 -3 3 -92z"/>
<path d="M3314 9816 c-17 -8 -43 -29 -57 -47 l-27 -34 0 38 0 37 -110 0 -110 0 0 -440 0 -440 120 0 120 0 0 313 c0 253 3 317 14 332 11 16 30 20 90 23 l76 4 0 114 0 114 -42 0 c-24 -1 -57 -7 -74 -14z"/>
<path d="M3673 9819 c-52 -15 -99 -67 -118 -132 -14 -48 -16 -99 -13 -339 3 -273 4 -285 26 -331 17 -34 37 -55 70 -75 45 -25 55 -27 197 -31 170 -4 240 7 287 47 47 40 68 94 68 185 l0 77 -120 0 -119 0 -3 -62 -3 -63 -72 -3 c-90 -4 -95 3 -91 126 l3 87 203 3 202 2 0 183 c0 155 -3 188 -19 222 -22 50 -69 91 -119 105 -45 12 -335 12 -379 -1z m275 -256 l3 -93 -86 0 -85 0 0 83 c0 53 5 88 12 95 9 9 37 12 83 10 l70 -3 3 -92z"/>
<path d="M4765 9818 c-51 -18 -82 -46 -106 -96 -20 -40 -23 -63 -24 -162 0 -129 11 -174 57 -226 42 -48 105 -64 248 -64 77 0 120 -4 128 -12 7 -7 12 -40 12 -78 0 -38 -5 -71 -12 -78 -16 -16 -180 -16 -196 0 -7 7 -12 34 -12 60 l0 48 -110 0 -110 0 0 -61 c0 -127 52 -207 149 -228 77 -16 297 -14 357 4 55 16 103 60 125 115 18 46 19 260 1 312 -36 102 -89 127 -269 128 -157 0 -163 3 -163 89 0 31 5 62 12 69 7 7 43 12 93 12 91 0 105 -8 105 -57 l0 -33 110 0 110 0 0 48 c0 72 -18 123 -59 163 -20 20 -54 42 -76 48 -50 14 -330 13 -370 -1z"/>
<path d="M7475 9818 c-51 -18 -82 -46 -107 -96 -23 -46 -23 -53 -23 -342 0 -322 3 -344 57 -406 44 -50 104 -64 268 -64 161 0 221 14 267 62 41 43 53 75 60 170 l6 79 -124 -3 -124 -3 -5 -60 -5 -60 -75 0 -75 0 -3 108 -3 107 207 0 206 0 -4 183 c-3 166 -5 186 -27 229 -24 51 -55 78 -110 96 -43 15 -345 14 -386 0z m273 -255 l3 -93 -81 0 -80 0 0 88 c0 49 3 92 7 96 4 4 39 5 78 4 l70 -3 3 -92z"/>
<path d="M8263 9819 c-52 -15 -99 -67 -118 -132 -14 -48 -16 -99 -13 -339 3 -273 4 -285 26 -331 17 -34 37 -55 70 -75 45 -25 55 -27 197 -31 170 -4 240 7 287 47 47 40 68 94 68 185 l0 77 -120 0 -119 0 -3 -62 -3 -63 -72 -3 c-90 -4 -95 3 -91 126 l3 87 203 3 202 2 0 183 c0 155 -3 188 -19 222 -22 50 -69 91 -119 105 -45 12 -335 12 -379 -1z m275 -256 l3 -93 -86 0 -85 0 0 83 c0 53 5 88 12 95 9 9 37 12 83 10 l70 -3 3 -92z"/>
<path d="M140 9806 c0 -2 43 -199 95 -437 52 -237 95 -434 95 -436 0 -1 66 -3 148 -3 l147 0 43 243 c47 261 53 290 57 285 2 -2 25 -121 51 -265 l48 -263 148 0 c81 0 148 4 148 8 0 8 169 785 185 850 5 22 5 22 -113 22 l-118 0 -49 -330 c-27 -182 -52 -327 -55 -323 -4 5 -33 145 -64 313 -32 168 -60 313 -63 323 -4 16 -16 17 -120 15 l-116 -3 -62 -320 c-34 -176 -64 -326 -66 -334 -3 -7 -27 137 -55 320 l-50 334 -117 3 c-64 1 -117 1 -117 -2z"/>
</g>
</svg>